<svg width="20" height="16" viewBox="0 0 20 16" fill="none" xmlns="http://www.w3.org/2000/svg">
<path d="M4.978 14.477C4.978 15.848 6.623 16.519 7.555 15.527L19.558 2.723C20.518 1.695 19.803 0 18.409 0H1.496C0.178001 0 -0.494999 1.607 0.418001 2.572L4.978 7.4V14.477ZM6.971 13.212V6.585L1.856 1.169C2.159 1.491 1.934 2.026 1.496 2.026H17.459L6.971 13.212Z" fill="#42526E"/>
<path d="M6.416 7.90203L10.426 5.95203C10.6665 5.83029 10.8503 5.61993 10.9388 5.36529C11.0272 5.11065 11.0133 4.83162 10.9 4.58703C10.8469 4.46654 10.7701 4.35796 10.6742 4.26775C10.5782 4.17754 10.4652 4.10754 10.3416 4.06192C10.2181 4.0163 10.0867 3.99599 9.95515 4.00219C9.82362 4.00839 9.69468 4.04099 9.576 4.09803L5.566 6.04803C5.069 6.29003 4.856 6.90103 5.091 7.41203C5.14401 7.53274 5.22078 7.64154 5.31673 7.73194C5.41269 7.82234 5.52586 7.8925 5.64951 7.93822C5.77316 7.98395 5.90475 8.00431 6.03644 7.99809C6.16812 7.99187 6.29721 7.95921 6.416 7.90203Z" fill="#42526E"/>
</svg>
