<svg width="19" height="19" viewBox="0 0 19 19" fill="none" xmlns="http://www.w3.org/2000/svg">
<path fill-rule="evenodd" clip-rule="evenodd" d="M13.9716 12.8034L17.9116 16.8134C18.0881 17.0042 18.1834 17.2562 18.1773 17.516C18.1712 17.7759 18.0642 18.0231 17.8789 18.2054C17.6937 18.3877 17.4447 18.4907 17.1848 18.4925C16.9249 18.4944 16.6745 18.395 16.4866 18.2154L12.5486 14.2094C11.0292 15.3541 9.13153 15.8786 7.23992 15.6767C5.34831 15.4748 3.6041 14.5616 2.36046 13.122C1.11683 11.6825 0.466702 9.82411 0.541729 7.92323C0.616756 6.02236 1.41133 4.22102 2.76456 2.88395C4.11779 1.54689 5.92854 0.774026 7.83019 0.721849C9.73183 0.669672 11.5822 1.34208 13.0068 2.60293C14.4313 3.86377 15.3234 5.61883 15.5026 7.51274C15.6817 9.40664 15.1345 11.2979 13.9716 12.8034ZM8.03564 13.7184C9.49433 13.7184 10.8933 13.139 11.9247 12.1075C12.9562 11.0761 13.5356 9.67713 13.5356 8.21844C13.5356 6.75975 12.9562 5.36081 11.9247 4.32936C10.8933 3.29791 9.49433 2.71844 8.03564 2.71844C6.57695 2.71844 5.17801 3.29791 4.14656 4.32936C3.11511 5.36081 2.53564 6.75975 2.53564 8.21844C2.53564 9.67713 3.11511 11.0761 4.14656 12.1075C5.17801 13.139 6.57695 13.7184 8.03564 13.7184Z" fill="#42526E"/>
</svg>
