<svg xmlns="http://www.w3.org/2000/svg" viewBox="0 0 358.31 336.43"><defs><style>.cls-1{fill:#231f20;}</style></defs><g id="Слой_2" data-name="Слой 2"><g id="Layer_1" data-name="Layer 1"><path class="cls-1" d="M272,237.13l50.79,91.14-66.21,4.09-42.32-80.44c1,.72,2.51.13,3.29-.34,1.18-.7,1.8-.3,2.3.9a1.46,1.46,0,0,1-.67,1.82s11-.37,15.93-1.87,7.78-4.51,11.53-9-2.95-6.33-2.95-6.33-7.7-1.55-9.55-5.39-.22-6.81,2.34-10.8S245.57,217,246,217c-3.49,9,4.12,13.46,7.53,15.89s3.09,5,3.57,8.18,3.89,2.52,5.36,2.17a8.93,8.93,0,0,0,3.72-2.3,3.12,3.12,0,0,0,.92-3.27,24.47,24.47,0,0,1-.7-3s-.49-7.38-.62-9.15a19.16,19.16,0,0,0-2.84-9.21c-2.42-3.93-1.2-5.61.27-7.35s5.39-4.15,5.79-4.5c-7.51-1.51-11.8,1.77-11.8,1.77a23,23,0,0,0-14.39-11.77c-10.43-2.84-17.16.88-17.16.88s6.51,0,8.76,1.59-1.18,3.27-3.9,3.42-2.64-.85-13.3-.54-15.22,6-15.22,6,6.24-1,9.46,0,.13,3.79-1.45,4.59-5.23,1-13.41.67-11.2,3.14-11.15,3.27c6-1.29,12.44,1.37,12.44,1.37s3.09,2-3.81,3.19-15.75-.37-29-.72-21.1,10.45-21.15,10.45c-3-1.24-10.92-2-15.93-1.69s-13.13,6.81-13.13,6.81,3.57-.35,7.12-.57,3.63,1,2,3.31a3.43,3.43,0,0,1-.56.59H104.68l29.75-47.08h47.31l-41.82-79.5L72.69,234.42l-58.35-1L139.92,0,245.81,190.05h82.75l29.75,47.08Z"/><path class="cls-1" d="M26.65,289.93H11l-3,7.23H0l15-33.74h7.71l15.09,33.74H29.64ZM24.19,284l-5.35-12.91L13.49,284Z"/><path class="cls-1" d="M72.67,263.42v33.74H65V269.79H53.39l-.24,7A71.79,71.79,0,0,1,52,288.46a14.39,14.39,0,0,1-3.06,6.84,7.65,7.65,0,0,1-6,2.39,17.62,17.62,0,0,1-3.86-.53l.48-6.61a4.73,4.73,0,0,0,1.4.2q2.79,0,3.9-3.3a40.24,40.24,0,0,0,1.4-10.34l.48-13.69Z"/><path class="cls-1" d="M106.88,269.79H96.09v27.37H88.38V269.79H77.63v-6.37h29.25Z"/><path class="cls-1" d="M137.6,277.25c2.2,1.84,3.3,4.55,3.3,8.15q0,5.73-3.64,8.74t-10.24,3H111.8V263.42h7.75v11.09h8.58Q134.3,274.51,137.6,277.25Zm-6.26,12.63a5.46,5.46,0,0,0,1.71-4.34c0-3.5-2.16-5.25-6.46-5.25h-7v11.08h7A7,7,0,0,0,131.34,289.88Zm13.85-26.46H153v33.74h-7.76Z"/><path class="cls-1" d="M192.27,263.42v33.74h-7.81V283.33H169.14v13.83h-7.81V263.42h7.81v13.3h15.32v-13.3Z"/><path class="cls-1" d="M117.38,317h-7.44v19h-3V317H99.49v-2.7h17.89Z"/><path class="cls-1" d="M138,314.3l-9.65,17.89a8.74,8.74,0,0,1-2.69,3.19,5.92,5.92,0,0,1-3.38,1.05,7.2,7.2,0,0,1-2.92-.65l.81-2.48a6.3,6.3,0,0,0,2,.41,3.93,3.93,0,0,0,3.38-2.17l.49-.78-8.74-16.46h3.32l7,13.77,7.23-13.77Z"/><path class="cls-1" d="M158.67,314.3V336h-3V317H146l-.21,6.35a46.28,46.28,0,0,1-.73,7.29,9.11,9.11,0,0,1-1.81,4.2,4.25,4.25,0,0,1-3.35,1.41,7.92,7.92,0,0,1-2-.25l.22-2.76a3.74,3.74,0,0,0,1,.13,2.56,2.56,0,0,0,2.14-1.07,7.83,7.83,0,0,0,1.21-3.21,38.65,38.65,0,0,0,.53-5.64l.34-9.15Z"/><path class="cls-1" d="M184.12,314.3V336h-3V317H168.5v19h-3.07V314.3Z"/><path class="cls-1" d="M205,330.58H193.45L191.07,336h-3.2l9.83-21.7h3.07l9.86,21.7h-3.26Zm-1.09-2.48-4.68-10.64-4.68,10.64Z"/><path class="cls-1" d="M229.48,316.32a7.58,7.58,0,0,1,0,11.09,10.05,10.05,0,0,1-6.64,2h-5.36V336h-3.1V314.3h8.46A10.05,10.05,0,0,1,229.48,316.32Zm-2.24,9.16a5,5,0,0,0,0-7.23,7,7,0,0,0-4.49-1.25h-5.27v9.73h5.27A7,7,0,0,0,227.24,325.48Z"/></g></g></svg>